<?xml version="1.0" standalone="no"?>
<!DOCTYPE svg PUBLIC "-//W3C//DTD SVG 20010904//EN"
 "http://www.w3.org/TR/2001/REC-SVG-20010904/DTD/svg10.dtd">
<svg version="1.0" xmlns="http://www.w3.org/2000/svg"
 width="500.000000pt" height="500.000000pt" viewBox="0 0 500.000000 500.000000"
 preserveAspectRatio="xMidYMid meet">
<metadata>
Created by potrace 1.11, written by Peter Selinger 2001-2013
</metadata>
<g transform="translate(0.000000,500.000000) scale(0.100000,-0.100000)"
fill="#000000" stroke="none">
<path d="M3500 3167 c-91 -287 -238 -668 -346 -896 -30 -63 -54 -117 -54 -121
0 -4 25 -24 55 -44 l55 -36 122 246 c92 185 124 241 130 228 4 -11 32 -86 61
-169 52 -143 138 -355 156 -383 6 -11 28 -4 100 33 l92 46 -34 42 c-58 72
-271 404 -280 437 -1 4 59 48 133 98 183 123 281 203 439 357 l133 131 -81 68
c-45 38 -83 67 -85 65 -2 -2 -22 -32 -45 -67 -66 -99 -178 -227 -307 -352
-138 -135 -252 -235 -259 -228 -3 3 20 60 51 128 62 136 174 416 174 434 0 7
-26 36 -57 67 -108 102 -90 112 -153 -84z"/>
<path d="M1545 3309 c-113 -39 -201 -114 -256 -219 -20 -38 -24 -59 -24 -140
0 -79 4 -103 23 -141 l23 -47 92 -8 c51 -5 93 -6 95 -2 2 4 -3 17 -12 30 -23
37 -46 127 -46 183 0 71 24 136 72 190 46 52 93 79 155 90 37 6 45 3 68 -19
22 -22 25 -34 25 -91 0 -158 -63 -337 -188 -535 -119 -188 -330 -369 -446
-382 -21 -2 -33 4 -48 24 l-21 26 23 74 c27 91 117 268 177 349 51 70 53 63
-39 163 l-54 59 -52 -76 c-64 -93 -126 -221 -149 -307 -9 -37 -17 -104 -17
-155 0 -74 3 -97 21 -131 52 -98 132 -164 199 -164 166 0 443 223 594 480 110
187 164 473 110 586 -25 50 -126 149 -174 169 -47 20 -79 18 -151 -6z"/>
<path d="M4634 3312 c-103 -36 -209 -125 -254 -212 -30 -59 -43 -142 -31 -204
14 -78 46 -136 74 -137 12 0 53 -3 90 -8 37 -4 69 -5 71 -3 2 2 -10 34 -27 70
-27 57 -31 78 -31 142 0 66 5 83 34 139 52 97 161 165 235 147 47 -12 60 -63
46 -179 -29 -236 -153 -471 -355 -672 -107 -106 -183 -158 -254 -174 -38 -8
-46 -7 -63 10 -10 10 -19 30 -19 43 0 67 107 298 191 413 l48 66 -28 36 c-16
20 -46 56 -68 80 l-39 45 -46 -65 c-65 -91 -112 -181 -144 -274 -23 -67 -28
-97 -28 -190 -1 -102 1 -113 26 -155 33 -57 117 -137 153 -146 103 -26 291 72
443 230 139 145 240 315 294 496 24 81 35 250 19 307 -16 57 -110 159 -176
189 -59 28 -93 29 -161 6z"/>
<path d="M430 3279 c-71 -83 -124 -167 -190 -302 -116 -234 -170 -444 -170
-653 0 -80 4 -123 14 -143 22 -41 102 -111 128 -111 60 0 243 151 349 288 63
81 75 93 61 67 -92 -180 -247 -534 -301 -689 l-32 -90 83 -83 c45 -45 83 -81
85 -79 2 2 24 72 49 157 148 502 245 786 395 1165 l100 252 -67 86 c-37 47
-69 85 -70 83 -1 -1 -28 -73 -59 -160 -132 -373 -251 -581 -414 -728 -73 -65
-149 -119 -167 -119 -7 0 -10 18 -7 53 25 305 167 647 351 845 l50 53 -65 75
c-36 41 -70 74 -77 74 -6 0 -27 -19 -46 -41z"/>
<path d="M3034 3201 c-4 -299 -177 -696 -401 -918 -46 -46 -88 -83 -94 -83
-24 0 3 281 32 321 40 56 69 133 69 183 0 47 -3 53 -55 103 -30 29 -61 53 -69
53 -40 0 -77 -96 -100 -267 -16 -113 -16 -113 -110 -218 -59 -66 -223 -202
-232 -192 -10 10 190 755 231 858 4 11 -17 45 -65 105 -39 49 -74 90 -79 92
-19 7 -166 -563 -206 -799 -14 -83 -25 -179 -25 -214 0 -59 2 -65 41 -109 22
-25 49 -46 60 -46 43 0 167 78 284 178 l70 60 5 -79 c5 -75 7 -81 45 -119 21
-22 49 -40 60 -40 52 0 238 140 342 258 188 212 316 440 379 678 l26 97 -59
59 c-32 33 -78 77 -103 98 l-45 38 -1 -97z"/>
</g>
</svg>
